<svg width="194" height="145" viewBox="0 0 194 145" fill="none" xmlns="http://www.w3.org/2000/svg">
<path d="M16.6022 142.622C25.7714 142.622 33.2044 142.053 33.2044 141.352C33.2044 140.651 25.7714 140.082 16.6022 140.082C7.43307 140.082 0 140.651 0 141.352C0 142.053 7.43307 142.622 16.6022 142.622Z" fill="#E6E6E6"/>
<path d="M52.4156 145C61.5847 145 69.0178 144.432 69.0178 143.73C69.0178 143.029 61.5847 142.461 52.4156 142.461C43.2464 142.461 35.8134 143.029 35.8134 143.73C35.8134 144.432 43.2464 145 52.4156 145Z" fill="#E6E6E6"/>
<path d="M178.657 0H94.8812C94.3926 0.000596615 93.9243 0.195442 93.5789 0.541798C93.2335 0.888155 93.0392 1.35774 93.0386 1.84757V142.509C93.0388 142.999 93.2329 143.469 93.5785 143.815C93.924 144.161 94.3925 144.356 94.8812 144.356H178.657C179.096 144.357 179.521 144.2 179.854 143.914C180.187 143.628 180.408 143.232 180.475 142.797C180.492 142.702 180.501 142.605 180.5 142.509V1.84757C180.499 1.35774 180.305 0.888155 179.96 0.541798C179.614 0.195442 179.146 0.000595985 178.657 0ZM179.763 142.509C179.763 142.803 179.646 143.085 179.439 143.293C179.232 143.501 178.951 143.617 178.657 143.617H94.8812C94.5879 143.617 94.3068 143.501 94.0994 143.293C93.8921 143.085 93.7756 142.803 93.7756 142.509V1.84757C93.776 1.5537 93.8927 1.27199 94.0999 1.0642C94.3071 0.856401 94.5881 0.739467 94.8812 0.739026H178.657C178.95 0.739467 179.231 0.856401 179.439 1.0642C179.646 1.27199 179.763 1.5537 179.763 1.84757V142.509Z" fill="#E6E6E6"/>
<path d="M101.514 10.3759C101.319 10.3762 101.132 10.4541 100.994 10.5926C100.855 10.7312 100.778 10.919 100.777 11.115V41.6614C100.778 41.8573 100.855 42.0451 100.994 42.1837C101.132 42.3222 101.319 42.4002 101.514 42.4004H172.024C172.22 42.4002 172.407 42.3222 172.545 42.1837C172.683 42.0451 172.761 41.8573 172.761 41.6614V11.1149C172.761 10.919 172.683 10.7312 172.545 10.5926C172.407 10.4541 172.22 10.3761 172.024 10.3759L101.514 10.3759Z" fill="#E6E6E6"/>
<path d="M72.0632 34.2763C71.8746 34.2765 71.6937 34.3518 71.5603 34.4855C71.4269 34.6193 71.3519 34.8006 71.3517 34.9898V64.4789C71.3519 64.6681 71.4269 64.8494 71.5603 64.9832C71.6937 65.1169 71.8746 65.1922 72.0632 65.1924H140.132C140.321 65.1922 140.502 65.1169 140.635 64.9832C140.769 64.8494 140.844 64.6681 140.844 64.4789V34.9898C140.844 34.8006 140.769 34.6193 140.635 34.4855C140.502 34.3518 140.321 34.2765 140.132 34.2763H72.0632Z" fill="#378FE7"/>
<path d="M37.4162 102.772C37.5058 104.981 36.0988 106.938 34.7814 108.698C34.1806 109.522 28.5974 115.107 26.9111 117.548C26.5027 118.14 16.4772 129.744 15.9634 130.819C15.8425 131.073 15.743 131.338 15.6656 131.609C15.3653 132.639 15.3521 133.749 15.3785 134.848V135.617C15.4312 137.294 15.5076 138.98 15.9054 140.605C15.9634 140.842 16.0293 141.083 16.0635 141.323C15.9571 141.253 15.8566 141.175 15.7632 141.088L10.3143 137.033L9.97442 136.779C9.62662 135.77 9.29726 134.75 8.92576 133.754C8.70442 133.162 8.94157 132.486 9.33152 131.992C9.75399 131.524 10.2198 131.098 10.7227 130.718C11.1088 130.318 11.4531 129.879 11.7503 129.408C15.5102 123.921 26.0996 104.23 26.8716 100.267C27.8893 100.077 28.9321 100.064 29.9544 100.228L35.39 100.952C35.9776 101.031 36.6205 101.139 37.0025 101.591C37.2634 101.93 37.4085 102.344 37.4162 102.772Z" fill="#EFB7B9"/>
<path d="M60.6186 107.274C60.5028 108.097 60.2126 108.886 59.7675 109.588C59.2089 110.442 52.7931 126.988 50.7986 133.82C50.4323 135.075 50.6247 136.288 50.5851 136.708C50.5535 137.057 50.5245 137.405 50.4982 137.751C50.4613 138.182 50.4323 138.613 50.4007 139.041C50.319 140.174 50.2479 141.366 50.7248 142.396C50.9119 142.803 51.1938 143.154 51.3176 143.561C51.1317 143.465 50.9598 143.344 50.8065 143.202L45.3576 139.146C44.9133 137.884 44.5706 136.588 44.3327 135.271C44.1957 134.523 44.1298 133.664 44.5962 133.091C44.623 133.056 44.652 133.022 44.6831 132.991C44.8352 132.847 45.0053 132.725 45.189 132.626C45.3575 132.533 45.5195 132.429 45.6738 132.314C45.7896 132.223 45.894 132.119 45.9847 132.002C46.4326 131.448 46.5934 130.668 46.7277 129.936C47.2547 126.94 51.7181 108.558 51.6338 108.103C51.5416 107.657 49.0069 103.374 47.2679 102.423C49.0722 100.908 51.1303 99.7252 53.3465 98.9305C53.737 98.7481 54.1692 98.6742 54.598 98.7165C54.8274 98.7671 55.0466 98.8565 55.2462 98.9807C56.4397 99.6518 57.354 100.709 58.2288 101.765C59.533 103.356 60.8373 105.226 60.6186 107.274Z" fill="#EFB7B9"/>
<path d="M58.2409 100.909C58.0722 102.506 53.5951 103.92 47.9338 104.8C46.4717 105.027 42.8794 96.1545 41.3131 96.3044C39.4297 96.4847 39.5612 105.669 37.6986 105.718C31.3576 105.886 27.2599 105.235 25.9352 103.35C25.2185 103.175 24.3543 102.763 24.3886 102.029C24.4123 101.609 24.7443 101.236 24.7416 100.824C24.7416 100.105 26.8205 92.2377 28.0457 88.5047C28.3514 87.5773 28.5727 86.6262 28.9178 85.7095C30.4092 81.5775 31.0494 78.4071 33.7738 74.9673C34.1907 74.4846 34.5335 73.9424 34.7909 73.3583C35.0247 72.6572 35.1466 71.9233 35.1519 71.184L35.3021 68.5976C39.3413 68.4073 43.2645 68.484 47.2168 69.3399C47.4312 69.3336 47.6394 69.4129 47.7955 69.5604C47.9516 69.708 48.0429 69.9117 48.0492 70.1267L48.0494 70.1325C48.2022 71.0784 48.3093 72.0286 48.3708 72.9832C48.3727 73.1941 48.4028 73.4038 48.4604 73.6067C48.5641 73.8632 48.7082 74.1014 48.8873 74.3121C51.1743 77.3186 52.576 80.917 53.6827 84.5206C54.7893 88.1242 55.6693 91.8282 57.0605 95.3526C57.5401 96.5679 58.1671 97.9338 58.2936 99.2363C58.7942 99.6087 58.6836 100.452 58.2409 100.909Z" fill="#2F2E41"/>
<path d="M62.0798 57.5859C62.7754 56.9967 63.471 56.4049 64.1087 55.755C65.0084 54.7988 65.8396 53.78 66.5959 52.7062C67.4022 51.6045 68.2032 50.4764 68.7038 49.2029C69.2703 47.7446 69.4442 46.0854 70.4296 44.8754C70.541 44.7182 70.6958 44.597 70.8749 44.5267C71.4361 44.3497 71.8551 45.0551 71.9631 45.6389C72.4901 48.4975 71.2332 51.3508 70.0107 53.9875C69.6075 54.8567 69.186 55.7497 68.4877 56.4075C68.1046 56.7359 67.7045 57.0437 67.2889 57.3296C66.6716 57.8327 66.1034 58.3936 65.5921 59.0046C64.7138 60.005 63.8785 61.0415 63.0863 62.1142C62.1035 63.4351 61.1813 64.8195 60.0168 65.9846C58.8522 67.1497 57.3951 68.0982 55.7641 68.328C56.2305 68.2646 56.0777 65.5196 56.0276 65.1735C55.9565 64.6716 55.6139 64.0798 55.6034 63.5884C55.5902 62.986 55.8353 62.8988 56.3306 62.4761L62.0798 57.5859Z" fill="#EFB7B9"/>
<path d="M42.5242 40.2969C42.5242 40.2969 40.9433 48.2228 39.0989 49.5438C37.2545 50.8647 49.1113 52.4499 49.1113 52.4499C49.1113 52.4499 49.3748 46.1092 52.5365 43.2031C55.6983 40.2969 42.5242 40.2969 42.5242 40.2969Z" fill="#EFB7B9"/>
<path d="M53.1478 71.7705C53.5387 71.8933 53.9479 71.9469 54.3571 71.929C55.7405 71.9139 57.1038 71.5956 58.3515 70.9964C58.4685 70.951 58.5719 70.8765 58.6519 70.7797C58.6985 70.6786 58.7237 70.5689 58.7259 70.4575C58.7282 70.3461 58.7075 70.2354 58.6651 70.1325C57.9221 67.1206 59.3554 63.7046 57.9326 60.9517C56.386 61.4563 54.6891 62.0085 53.1425 62.4999C52.9053 62.5964 52.6499 62.6397 52.3942 62.6267C52.0878 62.5628 51.8072 62.4093 51.5879 62.1855C49.9122 60.7324 48.8556 58.7087 47.8992 56.7087C46.9427 54.7087 46.0047 52.6454 44.4976 51.0179C42.9905 49.3905 41.5808 48.5292 39.3781 48.7644C38.5962 48.8715 37.8784 49.2558 37.3546 49.8476C36.1109 51.1897 35.8632 53.2319 36.3006 55.0126C36.738 56.7933 37.7419 58.3705 38.7853 59.8738C40.1448 61.8341 41.6072 63.7654 43.4964 65.2211C44.5183 65.9632 45.579 66.6502 46.674 67.2792" fill="#E6E6E6"/>
<path d="M48.716 46.2413C53.0816 46.2413 56.6205 42.6928 56.6205 38.3155C56.6205 33.9381 53.0816 30.3896 48.716 30.3896C44.3505 30.3896 40.8115 33.9381 40.8115 38.3155C40.8115 42.6928 44.3505 46.2413 48.716 46.2413Z" fill="#EFB7B9"/>
<path d="M51.8778 61.1261C49.5016 63.9357 48.9993 67.5251 48.5131 71.0677C46.126 70.2567 43.4806 71.6173 41.0091 71.1206C39.7679 70.7062 38.4546 70.5534 37.1517 70.6717C36.2375 70.5843 35.3311 70.0083 34.4589 70.3016C33.0091 71.2225 34.421 65.5183 34.3348 63.8604C33.5749 35.8948 56.1966 49.4995 51.8778 61.1261Z" fill="#E6E6E6"/>
<path d="M65.2417 58.6426C65.9373 58.0535 66.6329 57.4617 67.2705 56.8118C68.1702 55.8556 69.0014 54.8368 69.7578 53.763C70.5641 52.6613 71.365 51.5332 71.8657 50.2597C72.4321 48.8014 72.6061 47.1422 73.5915 45.9322C73.7029 45.775 73.8576 45.6538 74.0368 45.5835C74.598 45.4065 75.0169 46.1119 75.125 46.6957C75.6519 49.5543 74.3951 52.4076 73.1725 55.0443C72.7694 55.9135 72.3478 56.8065 71.6496 57.4643C71.2665 57.7927 70.8663 58.1004 70.4508 58.3864C69.8335 58.8895 69.2653 59.4504 68.7539 60.0614C67.8756 61.0618 67.0404 62.0983 66.2482 63.1709C65.2654 64.4919 64.3432 65.8763 63.1786 67.0414C62.014 68.2065 60.557 69.155 58.926 69.3848C59.3924 69.3214 59.2395 66.5764 59.1895 66.2303C59.1183 65.7284 58.7758 65.1366 58.7653 64.6452C58.7521 64.0428 58.9971 63.9556 59.4925 63.5329L65.2417 58.6426Z" fill="#EFB7B9"/>
<path opacity="0.1" d="M51.0873 61.3903L51.0689 61.4246C50.6131 62.2727 49.9306 62.986 49.4616 63.8314C48.9347 64.7878 48.6896 65.879 48.4789 66.9542C48.3331 67.6763 48.1987 68.3994 48.0757 69.1233C47.1296 68.5791 46.2147 67.982 45.3355 67.3347C43.4463 65.879 41.984 63.9477 40.6244 61.9847C39.5705 60.4814 38.5693 58.9042 38.1398 57.1262C37.7103 55.3481 37.9606 53.3033 39.1937 51.9611C39.7175 51.3687 40.4352 50.9836 41.2173 50.8753C43.42 50.6402 44.8112 51.4935 46.3183 53.1183C47.8254 54.7431 48.7581 56.8171 49.7199 58.8091C50.1467 59.673 50.5841 60.5581 51.0873 61.3903Z" fill="black"/>
<path d="M42.54 49.8212C41.7581 49.9283 41.0403 50.3126 40.5164 50.9043C39.2728 52.2465 39.0251 54.2887 39.4625 56.0694C39.8999 57.85 40.9038 59.4273 41.9471 60.9306C43.3067 62.8909 44.769 64.8222 46.6582 66.2779C47.6802 67.02 48.7409 67.707 49.8358 68.336C51.6552 69.4596 53.4037 69.1097 55.0712 70.4495C55.4368 70.7814 55.8554 71.0494 56.3096 71.2421C56.7005 71.3649 57.1097 71.4185 57.519 71.4006C58.9024 71.3855 60.2657 70.5388 61.5134 69.9396C61.6303 69.8943 61.7337 69.8197 61.8138 69.723C61.8603 69.6218 61.8855 69.5121 61.8878 69.4007C61.8901 69.2893 61.8694 69.1787 61.8269 69.0757C61.0839 66.0638 62.5173 64.7614 61.0945 62.0085C59.5478 62.5131 57.851 63.0652 56.3043 63.5566C56.0672 63.6532 55.8117 63.6965 55.5561 63.6834C55.2497 63.6196 54.9691 63.4661 54.7498 63.2422C53.074 61.7892 52.0175 59.7654 51.061 57.7655C50.1046 55.7655 49.1666 53.7022 47.6595 52.0747C46.1523 50.4472 44.7427 49.586 42.54 49.8212Z" fill="#E6E6E6"/>
<path d="M53.5467 143.656C53.1944 144.015 52.7363 144.251 52.24 144.329C51.7437 144.407 51.2356 144.323 50.7906 144.089C50.6047 143.993 50.4328 143.873 50.2795 143.73L44.8306 139.675L42.6701 138.066C42.4428 137.854 42.2609 137.598 42.1355 137.313C42.0101 137.028 41.9438 136.721 41.9406 136.41C41.9373 136.099 41.9973 135.79 42.1169 135.503C42.2364 135.216 42.413 134.956 42.6358 134.74L44.0692 133.619L44.662 133.154L45.4577 132.531L46.1533 131.987L50.6167 134.496L50.6931 134.644L54.071 141.175C54.2288 141.596 54.2633 142.053 54.1704 142.493C54.0775 142.932 53.861 143.336 53.5467 143.656Z" fill="#2F2E41"/>
<path d="M18.5033 141.543C18.151 141.902 17.6929 142.138 17.1967 142.216C16.7004 142.294 16.1923 142.21 15.7473 141.976C15.6762 141.939 15.605 141.897 15.5365 141.852C15.4301 141.782 15.3296 141.703 15.2361 141.617L9.7873 137.561L9.44741 137.308L7.62674 135.952C7.39947 135.74 7.21759 135.484 7.09217 135.2C6.96675 134.915 6.90042 134.608 6.89722 134.296C6.89401 133.985 6.954 133.677 7.07353 133.39C7.19306 133.102 7.36963 132.843 7.59249 132.626L9.02584 131.506L9.61868 131.041L10.4144 130.417L11.11 129.873L11.2233 129.936L15.1387 132.137L15.5734 132.383L15.6498 132.531L19.0277 139.062C19.1854 139.482 19.2199 139.939 19.127 140.379C19.0341 140.819 18.8177 141.222 18.5033 141.543Z" fill="#2F2E41"/>
<path d="M56.1585 31.5591C53.0978 28.0819 49.6466 26.4188 45.5088 27.9458C38.8699 25.7114 30.1429 41.0669 35.5166 46.6357L44.6172 47.3966L47.4038 42.3653L46.4178 47.5768L53.6971 48.3053C49.9836 42.5158 51.1748 36.9507 56.1585 31.5591Z" fill="#2F2E41"/>
<path d="M90.443 56.6598C94.2575 56.6598 97.3498 53.5592 97.3498 49.7344C97.3498 45.9095 94.2575 42.8089 90.443 42.8089C86.6285 42.8089 83.5363 45.9095 83.5363 49.7344C83.5363 53.5592 86.6285 56.6598 90.443 56.6598Z" fill="white"/>
<path d="M106.031 48.8129C105.819 48.8164 105.617 48.9032 105.469 49.0547C105.32 49.2062 105.237 49.4101 105.237 49.6226C105.237 49.8351 105.32 50.0391 105.469 50.1906C105.617 50.342 105.819 50.4289 106.031 50.4324H127.839C128.053 50.4359 128.26 50.354 128.413 50.2046C128.567 50.0552 128.656 49.8507 128.659 49.6359C128.663 49.4212 128.581 49.2138 128.432 49.0595C128.283 48.9051 128.079 48.8164 127.865 48.8129C127.856 48.8128 127.847 48.8128 127.839 48.8129H106.031Z" fill="white"/>
<path d="M106.031 44.1215C105.819 44.125 105.617 44.2118 105.469 44.3633C105.32 44.5148 105.237 44.7187 105.237 44.9312C105.237 45.1437 105.32 45.3476 105.469 45.4991C105.617 45.6506 105.819 45.7374 106.031 45.7409H116.921C117.135 45.7443 117.342 45.6623 117.496 45.5129C117.65 45.3636 117.738 45.1591 117.741 44.9445C117.745 44.7299 117.663 44.5226 117.515 44.3683C117.366 44.214 117.162 44.1252 116.948 44.1215C116.939 44.1213 116.93 44.1213 116.921 44.1215H106.031Z" fill="white"/>
<path d="M106.031 53.7278C105.819 53.7312 105.617 53.8181 105.469 53.9696C105.32 54.121 105.237 54.325 105.237 54.5375C105.237 54.75 105.32 54.9539 105.469 55.1054C105.617 55.2569 105.819 55.3437 106.031 55.3472H127.839C127.945 55.349 128.05 55.3299 128.149 55.2908C128.247 55.2518 128.338 55.1936 128.414 55.1197C128.49 55.0457 128.551 54.9574 128.593 54.8598C128.636 54.7622 128.658 54.6572 128.66 54.5508C128.662 54.4444 128.643 54.3387 128.603 54.2397C128.564 54.1408 128.506 54.0505 128.433 53.9741C128.359 53.8977 128.271 53.8366 128.173 53.7943C128.076 53.752 127.971 53.7294 127.865 53.7278C127.856 53.7276 127.847 53.7276 127.839 53.7278H106.031Z" fill="white"/>
<path d="M112.642 76.6419C113.592 76.6419 114.362 75.8699 114.362 74.9175C114.362 73.9651 113.592 73.1931 112.642 73.1931C111.693 73.1931 110.923 73.9651 110.923 74.9175C110.923 75.8699 111.693 76.6419 112.642 76.6419Z" fill="#E6E6E6"/>
<path d="M119.73 74.0246C119.496 74.0286 119.274 74.1244 119.11 74.2914C118.946 74.4584 118.854 74.6833 118.854 74.9175C118.854 75.1517 118.946 75.3766 119.11 75.5436C119.274 75.7106 119.496 75.8064 119.73 75.8104H161.711C161.946 75.8132 162.173 75.7224 162.342 75.5578C162.511 75.3932 162.608 75.1682 162.612 74.9321C162.616 74.6959 162.526 74.4679 162.363 74.2978C162.199 74.1277 161.975 74.0295 161.74 74.0246C161.73 74.0245 161.72 74.0245 161.711 74.0246H119.73Z" fill="#E6E6E6"/>
<path d="M112.642 85.0175C113.592 85.0175 114.362 84.2455 114.362 83.2931C114.362 82.3408 113.592 81.5687 112.642 81.5687C111.693 81.5687 110.923 82.3408 110.923 83.2931C110.923 84.2455 111.693 85.0175 112.642 85.0175Z" fill="#E6E6E6"/>
<path d="M119.73 82.4002C119.496 82.4042 119.273 82.5 119.11 82.667C118.946 82.834 118.854 83.0589 118.854 83.2931C118.854 83.5273 118.946 83.7522 119.11 83.9192C119.273 84.0862 119.496 84.182 119.73 84.186H161.711C161.946 84.1889 162.173 84.0982 162.342 83.9336C162.511 83.769 162.608 83.5439 162.612 83.3077C162.616 83.0715 162.527 82.8434 162.363 82.6733C162.2 82.5032 161.975 82.405 161.74 82.4002C161.73 82.4001 161.72 82.4001 161.711 82.4002H119.73Z" fill="#E6E6E6"/>
<path d="M112.642 93.3931C113.592 93.3931 114.362 92.6211 114.362 91.6688C114.362 90.7164 113.592 89.9444 112.642 89.9444C111.693 89.9444 110.923 90.7164 110.923 91.6688C110.923 92.6211 111.693 93.3931 112.642 93.3931Z" fill="#E6E6E6"/>
<path d="M119.73 90.7759C119.496 90.7799 119.273 90.8757 119.11 91.0427C118.946 91.2097 118.854 91.4345 118.854 91.6688C118.854 91.903 118.946 92.1278 119.11 92.2949C119.273 92.4619 119.496 92.5577 119.73 92.5616H161.711C161.946 92.5646 162.173 92.4738 162.342 92.3092C162.511 92.1446 162.608 91.9196 162.612 91.6834C162.616 91.4472 162.527 91.2191 162.363 91.049C162.2 90.8789 161.975 90.7807 161.74 90.7759C161.73 90.7757 161.72 90.7757 161.711 90.7759H119.73Z" fill="#E6E6E6"/>
<path d="M112.642 101.769C113.592 101.769 114.362 100.997 114.362 100.044C114.362 99.092 113.592 98.32 112.642 98.32C111.693 98.32 110.923 99.092 110.923 100.044C110.923 100.997 111.693 101.769 112.642 101.769Z" fill="#E6E6E6"/>
<path d="M119.73 99.1515C119.496 99.1555 119.274 99.2513 119.11 99.4183C118.946 99.5853 118.854 99.8102 118.854 100.044C118.854 100.279 118.946 100.503 119.11 100.67C119.274 100.837 119.496 100.933 119.73 100.937H161.711C161.828 100.94 161.944 100.919 162.054 100.876C162.163 100.833 162.263 100.769 162.347 100.688C162.431 100.606 162.499 100.508 162.546 100.401C162.593 100.293 162.618 100.177 162.62 100.059C162.621 99.9415 162.6 99.8247 162.557 99.7154C162.514 99.6061 162.449 99.5064 162.368 99.4221C162.286 99.3378 162.188 99.2705 162.081 99.224C161.973 99.1776 161.857 99.1529 161.74 99.1515C161.73 99.1514 161.72 99.1514 161.711 99.1515H119.73Z" fill="#E6E6E6"/>
<path d="M112.642 110.144C113.592 110.144 114.362 109.372 114.362 108.42C114.362 107.468 113.592 106.696 112.642 106.696C111.693 106.696 110.923 107.468 110.923 108.42C110.923 109.372 111.693 110.144 112.642 110.144Z" fill="#E6E6E6"/>
<path d="M119.73 107.527C119.496 107.531 119.274 107.627 119.11 107.794C118.946 107.961 118.854 108.186 118.854 108.42C118.854 108.654 118.946 108.879 119.11 109.046C119.274 109.213 119.496 109.309 119.73 109.313H161.711C161.946 109.316 162.173 109.225 162.342 109.06C162.511 108.896 162.608 108.671 162.612 108.435C162.616 108.198 162.526 107.97 162.363 107.8C162.199 107.63 161.975 107.532 161.74 107.527C161.73 107.527 161.72 107.527 161.711 107.527H119.73Z" fill="#E6E6E6"/>
<path d="M112.642 118.52C113.592 118.52 114.362 117.748 114.362 116.796C114.362 115.843 113.592 115.071 112.642 115.071C111.693 115.071 110.923 115.843 110.923 116.796C110.923 117.748 111.693 118.52 112.642 118.52Z" fill="#E6E6E6"/>
<path d="M119.73 115.903C119.496 115.907 119.274 116.003 119.11 116.17C118.946 116.337 118.854 116.561 118.854 116.796C118.854 117.03 118.946 117.255 119.11 117.422C119.274 117.589 119.496 117.685 119.73 117.689H161.711C161.946 117.691 162.173 117.601 162.342 117.436C162.511 117.271 162.608 117.046 162.612 116.81C162.616 116.574 162.526 116.346 162.363 116.176C162.199 116.006 161.975 115.908 161.74 115.903C161.73 115.903 161.72 115.903 161.711 115.903H119.73Z" fill="#E6E6E6"/>
<path d="M112.642 126.896C113.592 126.896 114.362 126.124 114.362 125.171C114.362 124.219 113.592 123.447 112.642 123.447C111.693 123.447 110.923 124.219 110.923 125.171C110.923 126.124 111.693 126.896 112.642 126.896Z" fill="#E6E6E6"/>
<path d="M119.73 124.278C119.496 124.282 119.273 124.378 119.11 124.545C118.946 124.712 118.854 124.937 118.854 125.171C118.854 125.405 118.946 125.63 119.11 125.797C119.273 125.964 119.496 126.06 119.73 126.064H161.711C161.946 126.067 162.173 125.976 162.342 125.812C162.511 125.647 162.608 125.422 162.612 125.186C162.616 124.95 162.527 124.722 162.363 124.551C162.2 124.381 161.975 124.283 161.74 124.278C161.73 124.278 161.72 124.278 161.711 124.278H119.73Z" fill="#E6E6E6"/>
<path d="M194 112.871C193.963 113.78 193.047 132.544 180.475 142.797C179.95 143.226 179.403 143.639 178.837 144.036L178.409 143.617H178.657C178.951 143.617 179.232 143.5 179.439 143.293C179.646 143.085 179.763 142.803 179.763 142.509V105.523C180.026 104.104 180.274 102.71 180.5 101.352C181.726 93.9745 182.293 87.7421 181.375 85.153C181.773 86.1532 189.762 106.609 185.423 127.452C189.72 121.552 193.799 115.359 194 112.871Z" fill="#E6E6E6"/>
</svg>
